<?xml version="1.0" encoding="utf-8"?>
<!-- Generator: Adobe Illustrator 21.0.2, SVG Export Plug-In . SVG Version: 6.00 Build 0)  -->
<svg version="1.1" id="Capa_1" xmlns="http://www.w3.org/2000/svg" xmlns:xlink="http://www.w3.org/1999/xlink" x="0px" y="0px"
	 width="424.038px" height="356px" viewBox="0 0 424.038 356" style="enable-background:new 0 0 424.038 356;" xml:space="preserve"
	>
<style type="text/css">
	.st0{fill:url(#SVGID_1_);}
	.st1{fill:url(#SVGID_2_);}
	.st2{fill:url(#SVGID_3_);}
	.st3{fill:url(#SVGID_4_);}
</style>
<g>
	<g>
		<linearGradient id="SVGID_1_" gradientUnits="userSpaceOnUse" x1="294.4" y1="58.2" x2="410.8" y2="58.2">
			<stop  offset="0" style="stop-color:#268AE2"/>
			<stop  offset="1" style="stop-color:#44E2FF"/>
		</linearGradient>
		<path class="st0" d="M352.4,0c-32.4,0-58,26-58,58.4s26,58,58,58s58.4-26,58.4-58.4S384.8,0,352.4,0z M352.4,103.6
			c-25.2,0-45.6-20.4-45.6-45.6s20.8-45.2,45.6-45.2c25.2,0,45.6,20.4,45.6,45.6S377.6,103.6,352.4,103.6z"/>
	</g>
</g>
<g>
	<g>
		<linearGradient id="SVGID_2_" gradientUnits="userSpaceOnUse" x1="333.6" y1="58.2" x2="371.2" y2="58.2">
			<stop  offset="0" style="stop-color:#268AE2"/>
			<stop  offset="1" style="stop-color:#44E2FF"/>
		</linearGradient>
		<path class="st1" d="M370.8,67.2c-0.4-1.2-0.4-2-1.2-3.2c-0.4-0.8-0.8-2-1.6-2.8c-0.8-0.8-1.2-1.6-2-2.4s-1.6-1.6-2.8-2
			c-0.8-0.8-2-1.2-2.8-1.6c-1.2-0.4-2-1.2-3.2-1.6s-2.4-0.8-3.2-1.2c-0.4,0-1.2-0.4-1.6-0.8s-1.2-0.4-1.6-0.8s-1.2-0.4-1.6-0.8
			s-0.8-0.8-1.2-1.2c-0.4-0.4-0.8-0.8-0.8-1.6c-0.4-0.4-0.4-1.2-0.4-1.6c0-0.8,0-1.2,0-2c0-0.4,0.4-1.2,0.4-1.6
			c0.4-0.4,0.4-1.2,0.8-1.6s0.8-0.8,1.2-1.2c0.4-0.4,1.2-0.8,2-0.8c0.8-0.4,1.2-0.4,2-0.4c0.4,0,0.8,0,1.2,0s0.8,0,1.2,0
			c0.8,0,1.2,0,2,0.4c0.8,0,1.6,0.4,2,0.4s1.2,0.4,1.6,0.4c0.8,0,1.2,0.4,1.6,0.4l2,0.8l0.4-2.4l0.8-6.4V30l-1.6-0.4
			c-0.4,0-1.2-0.4-1.6-0.4s-0.8-0.4-1.6-0.4c-0.4,0-1.2-0.4-2-0.4s-1.2-0.4-2-0.4h-0.4v-5.6v-2h-2h-5.6h-2v2v6h-0.4
			c-1.2,0.4-2.4,0.8-3.6,1.6c-1.2,0.4-2,1.2-2.8,2s-1.6,1.6-2.4,2.8c-0.8,0.8-1.2,2-1.6,3.2s-0.8,2.4-1.2,3.6
			c-0.4,1.2-0.4,2.8-0.4,4s0,2,0.4,3.2s0.4,2,1.2,3.2c0.4,0.8,1.2,2,1.6,2.8c0.8,0.8,1.2,1.6,2,2.4s1.6,1.6,2.8,2
			c0.8,0.8,2,1.2,2.8,1.6c1.2,0.4,2.4,1.2,3.2,1.6c1.2,0.4,2.4,0.8,3.2,1.2c0.4,0,1.2,0.4,1.6,0.8c0.4,0.4,1.2,0.4,1.6,0.8
			c0.4,0.4,0.8,0.8,1.2,0.8c0.4,0.4,0.8,0.8,1.2,1.2c0.4,0.4,0.4,0.8,0.8,1.6c0,0.4,0.4,1.2,0.4,2s0,1.2,0,2c0,0.4-0.4,1.2-0.8,1.6
			c-0.4,0.4-0.8,0.8-1.2,1.2c-0.4,0.4-0.8,0.8-1.6,1.2c-0.4,0.4-1.2,0.4-1.6,0.8c-0.4,0-1.2,0.4-2,0.4c-0.4,0-0.8,0-1.6,0
			c-0.4,0-1.2,0-1.6,0c-0.8,0-1.6,0-2,0c-0.8,0-1.6-0.4-2-0.4c-0.8,0-1.6-0.4-2.4-0.8c-0.8-0.4-1.6-0.4-2.4-0.8
			c-0.4,0-0.8-0.4-1.2-0.4c-0.4,0-0.8-0.4-1.2-0.4l-2.4-1.2l-0.4,2.8l-0.8,7.2v1.2l1.2,0.4c1.6-0.4,2.4,0,3.6,0.4
			c0.8,0.4,2,0.8,2.8,0.8c0.8,0.4,2,0.4,3.2,0.8c1.2,0.4,2,0.4,3.2,0.4h0.8v6v2h2h5.6h2v-2v-6.4h0.4c1.2-0.4,2.4-0.8,3.6-1.6
			c1.2-0.4,2-1.2,3.2-2c0.8-0.8,1.6-1.6,2.4-2.8c0.8-0.8,1.2-2,2-3.2c0.4-1.2,0.8-2.4,1.2-3.6c0.4-1.2,0.4-2.4,0.4-4
			C371.2,69.2,371.2,68.4,370.8,67.2z"/>
	</g>
</g>
<g>
	<g>
		<linearGradient id="SVGID_3_" gradientUnits="userSpaceOnUse" x1="68.489" y1="168.775" x2="325.65" y2="168.775">
			<stop  offset="0" style="stop-color:#268AE2"/>
			<stop  offset="1" style="stop-color:#44E2FF"/>
		</linearGradient>
		<path class="st2" d="M324.4,124c-2-2.8-6.4-3.2-9.2-1.2l-64.8,51.6l-83.6-34.8c-2-0.8-4.4-0.4-6,0.8l-89.6,64
			c-2.8,2-3.6,6-1.6,8.8c1.2,2,3.2,2.8,5.2,2.8c1.2,0,2.4-0.4,3.6-1.2l86.8-62l84,34.8c2,0.8,4.8,0.4,6.4-0.8l67.6-53.6
			C326,131.2,326.4,126.8,324.4,124z"/>
	</g>
</g>
<g>
	<g>
		<linearGradient id="SVGID_4_" gradientUnits="userSpaceOnUse" x1="0" y1="253.8" x2="424.0381" y2="253.8">
			<stop  offset="0" style="stop-color:#268AE2"/>
			<stop  offset="1" style="stop-color:#44E2FF"/>
		</linearGradient>
		<path class="st3" d="M418,343.2h-29.6V158c0-3.6-2.8-6.4-6.4-6.4h-58.8c-3.6,0-6.4,2.8-6.4,6.4v185.2h-21.6V222
			c0-3.6-2.8-6.4-6.4-6.4h-59.2c-3.6,0-6.4,2.8-6.4,6.4v121.2h-21.6V212.4c0-3.6-2.8-6.4-6.4-6.4h-58.8c-3.6,0-6.4,2.8-6.4,6.4
			v130.8h-21.6V250c0-3.6-2.8-6.4-6.4-6.4H42.8c-3.6,0-6.4,2.8-6.4,6.4v93.2h-30c-3.6,0-6.4,2.8-6.4,6.4s2.8,6.4,6.4,6.4h36h58.8
			h35.2h58.8h34.4h58.8h34.4h58.8h36c3.6,0,6.4-2.8,6.4-6.4C424.4,346,421.6,343.2,418,343.2z M95.2,343.2h-46v-86.8h46V343.2z
			 M188.8,343.2h-46V218.8h46V343.2z M282,343.2h-46V228.4h46V343.2z M375.6,343.2h-46V164.4h46V343.2z"/>
	</g>
</g>
</svg>
