<?xml version="1.0" encoding="iso-8859-1"?>
<!-- Generator: Adobe Illustrator 16.0.0, SVG Export Plug-In . SVG Version: 6.00 Build 0)  -->
<!DOCTYPE svg PUBLIC "-//W3C//DTD SVG 1.1//EN" "http://www.w3.org/Graphics/SVG/1.1/DTD/svg11.dtd">
<svg xmlns="http://www.w3.org/2000/svg" xmlns:xlink="http://www.w3.org/1999/xlink" version="1.1" id="Capa_1" x="0px" y="0px" width="512px" height="512px" viewBox="0 0 127.421 127.421" style="enable-background:new 0 0 127.421 127.421;" xml:space="preserve">
<g>
	<path d="M127.421,64.883L127.421,64.883c0-0.137-0.062-0.247-0.072-0.384c-0.037-0.323-0.064-0.653-0.194-0.968l-0.007-0.01   c0-0.003,0-0.003,0-0.007l-17.286-41.271h8.019c1.937,0,3.504-1.565,3.504-3.504c0-1.937-1.567-3.504-3.504-3.504h-13.265   c-0.007,0-0.014,0-0.021,0l0,0c-0.007,0-0.014,0-0.021,0H22.848c-0.008,0-0.015,0-0.022,0l0,0c-0.007,0-0.011,0-0.018,0H9.541   c-1.937,0-3.504,1.567-3.504,3.504c0,1.938,1.567,3.504,3.504,3.504h8.018L0.275,63.517c0,0-0.003,0-0.003,0.003l-0.004,0.01   c-0.164,0.388-0.224,0.804-0.241,1.211C0.027,64.794,0,64.831,0,64.883c0,0.105,0.014,0.212,0.017,0.321c0,0.007,0,0.014,0,0.021   c0.185,12.43,10.337,22.483,22.809,22.483c12.582,0,22.813-10.226,22.827-22.798c0-0.011,0-0.018,0-0.024v-0.003   c0-0.134-0.063-0.247-0.073-0.377c-0.04-0.327-0.063-0.657-0.197-0.972l-0.003-0.01c0-0.003-0.003-0.003-0.003-0.007L28.093,22.239   h32.11v82.939H38.595c-1.937,0-3.504,1.567-3.504,3.504c0,1.94,1.567,3.505,3.504,3.505h50.231c1.937,0,3.504-1.564,3.504-3.505   c0-1.937-1.567-3.504-3.504-3.504H67.211V22.239h32.117L82.043,63.514c0,0,0,0,0,0.003l-0.007,0.01   c-0.164,0.389-0.223,0.801-0.239,1.211c0,0.049-0.027,0.09-0.027,0.141c0,0.106,0.014,0.216,0.017,0.318c0,0.007,0,0.014,0,0.021   c0.185,12.43,10.339,22.49,22.809,22.49c12.58,0,22.812-10.226,22.826-22.805C127.421,64.896,127.421,64.89,127.421,64.883z    M22.826,27.811l14.056,33.564H8.774L22.826,27.811z M22.826,80.7c-7.517,0-13.797-5.277-15.398-12.316h30.793   C36.619,75.423,30.339,80.7,22.826,80.7z M104.595,27.811l14.059,33.564H90.54L104.595,27.811z M104.595,80.7   c-7.515,0-13.798-5.277-15.399-12.316h30.793C118.387,75.423,112.11,80.7,104.595,80.7z" fill="#c6c6c6"/>
</g>
<g>
</g>
<g>
</g>
<g>
</g>
<g>
</g>
<g>
</g>
<g>
</g>
<g>
</g>
<g>
</g>
<g>
</g>
<g>
</g>
<g>
</g>
<g>
</g>
<g>
</g>
<g>
</g>
<g>
</g>
</svg>
