<?xml version="1.0" encoding="utf-8"?>
<!-- Generator: Adobe Illustrator 21.0.2, SVG Export Plug-In . SVG Version: 6.00 Build 0)  -->
<svg version="1.1" id="Capa_1" xmlns="http://www.w3.org/2000/svg" xmlns:xlink="http://www.w3.org/1999/xlink" x="0px" y="0px"
	 width="512px" height="429.817px" viewBox="0 0 512 429.817" style="enable-background:new 0 0 512 429.817;" xml:space="preserve"
	>
<style type="text/css">
	.st0{fill:url(#SVGID_1_);}
</style>
<g>
	<g>
		<linearGradient id="SVGID_1_" gradientUnits="userSpaceOnUse" x1="0" y1="214.9083" x2="512" y2="214.9083">
			<stop  offset="0" style="stop-color:#268AE2"/>
			<stop  offset="1" style="stop-color:#44E2FF"/>
		</linearGradient>
		<path class="st0" d="M28.378,429.817h126.52c15.646,0,28.378-12.732,28.378-28.378v-126.52c0-15.646-12.732-28.378-28.378-28.378
			h-53.796V110.562c0-5.212,4.247-9.459,9.459-9.459h53.805v53.805c0,15.646,12.732,28.378,28.378,28.378h126.52
			c15.646,0,28.378-12.732,28.378-28.378v-53.805h53.805c5.212,0,9.459,4.247,9.459,9.459v135.979h-53.805
			c-15.636,0-28.378,12.732-28.378,28.378v126.52c0,15.646,12.742,28.378,28.378,28.378h126.52
			c15.646,0,28.378-12.732,28.378-28.378v-126.52c0-15.646-12.732-28.378-28.378-28.378h-53.805V110.562
			c0-15.646-12.732-28.378-28.378-28.378h-53.805V28.378C347.633,12.732,334.901,0,319.255,0h-126.52
			c-15.646,0-28.378,12.732-28.378,28.378v53.805h-53.796c-15.646,0-28.378,12.732-28.378,28.378v135.979H28.378
			C12.732,246.541,0,259.273,0,274.919v126.52C0,417.084,12.732,429.817,28.378,429.817z M493.072,274.919v126.52
			c0,5.212-4.247,9.459-9.459,9.459h-126.52c-5.212,0-9.459-4.247-9.459-9.459v-126.52c0-5.212,4.247-9.459,9.459-9.459h126.52
			C488.843,265.459,493.072,269.707,493.072,274.919z M183.276,28.388c0-5.212,4.247-9.459,9.459-9.459h126.52
			c5.212,0,9.459,4.247,9.459,9.459v126.52c0,5.212-4.247,9.459-9.459,9.459h-126.52c-5.212,0-9.459-4.247-9.459-9.459V28.388z
			 M18.919,274.919c0-5.212,4.247-9.459,9.459-9.459h126.52c5.212,0,9.459,4.247,9.459,9.459v126.52
			c0,5.212-4.247,9.459-9.459,9.459H28.378c-5.212,0-9.459-4.247-9.459-9.459V274.919z"/>
	</g>
</g>
</svg>
