<svg version="1.1" id="Capa_1" xmlns="http://www.w3.org/2000/svg" xmlns:xlink="http://www.w3.org/1999/xlink" x="0px" y="0px"
	 width="503.873px" height="503.873px" viewBox="0 0 503.873 503.873" style="enable-background:new 0 0 503.873 503.873;"
	 xml:space="preserve">
<style type="text/css">
	.st0{fill:url(#SVGID_1_);}
	.st1{fill:url(#SVGID_2_);}
	.st2{fill:url(#SVGID_3_);}
	.st3{fill:url(#SVGID_4_);}
	.st4{fill:url(#SVGID_5_);}
	.st5{fill:url(#SVGID_6_);}
	.st6{fill:url(#SVGID_7_);}
	.st7{fill:url(#SVGID_8_);}
	.st8{fill:url(#SVGID_9_);}
</style>
<g>
	<g>
		<linearGradient id="SVGID_1_" gradientUnits="userSpaceOnUse" x1="0" y1="115.404" x2="186.921" y2="115.404">
			<stop  offset="0" style="stop-color:#268AE2"/>
			<stop  offset="1" style="stop-color:#44E2FF"/>
		</linearGradient>
		<path class="st0" d="M134.095,104.219c8.127-9.752,13.003-21.943,13.003-34.946c0-29.257-24.381-53.638-53.638-53.638
			S39.822,40.016,39.822,69.273c0,13.003,4.876,25.194,13.003,34.946C17.879,118.847,0,144.041,0,177.362
			c0,14.629,3.251,24.381,10.565,30.883c12.19,10.565,38.197,5.689,47.136,4.064c10.565-1.625,22.756-3.251,35.759-3.251
			s25.194,1.625,35.759,3.251c19.505,3.251,35.759,5.689,47.137-4.063c7.314-5.689,10.565-16.254,10.565-30.883
			C186.921,144.041,169.041,118.847,134.095,104.219z M93.46,32.701c20.317,0,37.384,17.067,37.384,37.384
			S113.778,107.47,93.46,107.47S56.076,90.403,56.076,70.086S73.143,32.701,93.46,32.701z M165.791,196.054
			c-5.689,4.876-18.692,2.438-34.133,0c-11.378-1.625-24.381-4.063-38.197-4.063s-26.819,1.625-38.197,4.063
			c-15.441,3.251-28.444,4.876-34.133,0c-3.251-2.438-4.876-8.94-4.876-17.879c0-30.07,17.067-49.575,51.2-60.952
			c7.314,4.064,16.254,6.502,26.006,6.502s18.692-2.438,26.006-6.502c34.133,11.378,51.2,31.695,51.2,60.952
			C170.667,187.114,169.041,193.616,165.791,196.054z"/>
	</g>
</g>
<g>
	<g>
		<linearGradient id="SVGID_2_" gradientUnits="userSpaceOnUse" x1="316.953" y1="116.2165" x2="503.873" y2="116.2165">
			<stop  offset="0" style="stop-color:#268AE2"/>
			<stop  offset="1" style="stop-color:#44E2FF"/>
		</linearGradient>
		<path class="st1" d="M451.048,105.032c8.127-9.752,13.003-21.943,13.003-34.946c0-29.257-24.381-53.638-53.638-53.638
			s-53.638,24.381-53.638,53.638c0,13.003,4.876,25.194,13.003,34.946c-34.946,14.629-52.825,39.822-52.825,73.143
			c0,14.629,3.251,24.381,10.565,30.883c12.19,10.565,38.197,5.689,47.136,4.063c10.565-1.625,23.568-3.251,35.759-3.251
			c13.003,0,25.194,1.625,35.759,3.251c19.505,3.251,35.759,5.689,47.136-4.063c7.314-5.689,10.565-16.254,10.565-30.883
			C503.873,144.854,485.994,119.66,451.048,105.032z M410.413,32.701c20.318,0,37.384,17.067,37.384,37.384
			s-17.067,37.384-37.384,37.384c-20.317,0-37.384-17.067-37.384-37.384S390.095,32.701,410.413,32.701z M482.743,196.054
			c-5.689,4.876-18.692,2.438-34.133,0c-11.378-1.625-24.381-4.063-38.197-4.063c-13.816,0-26.819,1.625-38.197,4.063
			c-15.441,2.438-28.444,4.063-34.133,0c-3.251-2.438-4.876-8.94-4.876-17.879c0-30.07,17.067-49.575,51.2-60.952
			c7.314,4.064,16.254,6.502,26.006,6.502s18.692-2.438,26.006-6.502c34.133,11.378,51.2,31.695,51.2,60.952
			C487.619,187.114,485.994,193.616,482.743,196.054z"/>
	</g>
</g>
<g>
	<g>
		<linearGradient id="SVGID_3_" gradientUnits="userSpaceOnUse" x1="158.476" y1="388.471" x2="345.397" y2="388.471">
			<stop  offset="0" style="stop-color:#268AE2"/>
			<stop  offset="1" style="stop-color:#44E2FF"/>
		</linearGradient>
		<path class="st2" d="M292.571,377.286c8.127-9.752,13.003-21.943,13.003-34.946c0-29.257-24.381-53.638-53.638-53.638
			s-53.638,24.381-53.638,53.638c0,13.003,4.876,25.194,13.003,34.946c-34.946,14.629-52.825,39.822-52.825,73.143
			c0,14.629,3.251,24.381,10.565,30.883c12.19,10.565,38.197,5.689,47.137,4.064c10.565-1.625,23.568-3.251,35.759-3.251
			c13.003,0,25.194,1.625,35.759,3.251c19.505,3.251,35.759,5.689,47.136-4.064c7.314-5.689,10.565-16.254,10.565-30.883
			C345.397,417.108,327.517,391.914,292.571,377.286z M251.937,304.955c20.317,0,37.384,17.067,37.384,37.384
			s-17.067,37.384-37.384,37.384s-37.384-17.067-37.384-37.384C214.552,322.022,231.619,304.955,251.937,304.955z M324.267,469.121
			c-5.689,4.876-18.692,2.438-34.133,0c-11.378-1.625-24.381-4.064-38.197-4.064c-13.816,0-26.819,1.625-38.197,4.064
			c-15.441,2.438-28.444,4.063-34.133,0c-3.251-2.438-4.876-8.94-4.876-17.879c0-30.07,17.067-49.575,51.2-60.952
			c7.314,4.063,16.254,6.502,26.006,6.502c9.752,0,18.692-2.438,26.006-6.502c34.133,11.378,51.2,31.695,51.2,60.952
			C329.143,460.181,327.517,465.87,324.267,469.121z"/>
	</g>
</g>
<g>
	<g>
		<linearGradient id="SVGID_4_" gradientUnits="userSpaceOnUse" x1="337.27" y1="309.4255" x2="446.984" y2="309.4255">
			<stop  offset="0" style="stop-color:#268AE2"/>
			<stop  offset="1" style="stop-color:#44E2FF"/>
		</linearGradient>
		<path class="st3" d="M430.73,227.749c-2.438,61.765-38.197,118.654-93.46,148.724l8.127,14.629
			c60.14-32.508,98.336-95.086,101.587-162.54L430.73,227.749z"/>
	</g>
</g>
<g>
	<g>
		<linearGradient id="SVGID_5_" gradientUnits="userSpaceOnUse" x1="159.289" y1="43.6725" x2="345.397" y2="43.6725">
			<stop  offset="0" style="stop-color:#268AE2"/>
			<stop  offset="1" style="stop-color:#44E2FF"/>
		</linearGradient>
		<path class="st4" d="M252.749,24.574c-32.508,0-65.016,8.127-93.46,23.568l8.127,14.629
			c25.194-14.629,54.451-21.943,84.521-21.943s59.327,7.314,85.333,21.943l8.127-14.629
			C316.952,32.701,285.257,24.574,252.749,24.574z"/>
	</g>
</g>
<g>
	<g>
		<linearGradient id="SVGID_6_" gradientUnits="userSpaceOnUse" x1="56.889" y1="311.8635" x2="173.917" y2="311.8635">
			<stop  offset="0" style="stop-color:#268AE2"/>
			<stop  offset="1" style="stop-color:#44E2FF"/>
		</linearGradient>
		<path class="st5" d="M73.143,227.749l-16.254,0.813c3.251,71.517,45.511,135.721,109.714,167.416l7.314-15.441
			C114.59,352.092,76.394,293.578,73.143,227.749z"/>
	</g>
</g>
<g>
	<g>
		<linearGradient id="SVGID_7_" gradientUnits="userSpaceOnUse" x1="243.81" y1="203.368" x2="260.064" y2="203.368">
			<stop  offset="0" style="stop-color:#268AE2"/>
			<stop  offset="1" style="stop-color:#44E2FF"/>
		</linearGradient>
		<rect x="243.81" y="195.241" class="st6" width="16.254" height="16.254"/>
	</g>
</g>
<g>
	<g>
		<linearGradient id="SVGID_8_" gradientUnits="userSpaceOnUse" x1="276.317" y1="203.368" x2="292.571" y2="203.368">
			<stop  offset="0" style="stop-color:#268AE2"/>
			<stop  offset="1" style="stop-color:#44E2FF"/>
		</linearGradient>
		<rect x="276.317" y="195.241" class="st7" width="16.254" height="16.254"/>
	</g>
</g>
<g>
	<g>
		<linearGradient id="SVGID_9_" gradientUnits="userSpaceOnUse" x1="211.302" y1="203.368" x2="227.556" y2="203.368">
			<stop  offset="0" style="stop-color:#268AE2"/>
			<stop  offset="1" style="stop-color:#44E2FF"/>
		</linearGradient>
		<rect x="211.302" y="195.241" class="st8" width="16.254" height="16.254"/>
	</g>
</g>
</svg>
