<?xml version="1.0" encoding="utf-8"?>
<!-- Generator: Adobe Illustrator 21.0.2, SVG Export Plug-In . SVG Version: 6.00 Build 0)  -->
<svg version="1.1" id="Layer_1" xmlns="http://www.w3.org/2000/svg" xmlns:xlink="http://www.w3.org/1999/xlink" x="0px" y="0px"
	 width="490.667px" height="490.667px" viewBox="0 0 490.667 490.667" style="enable-background:new 0 0 490.667 490.667;"
	 xml:space="preserve">
<style type="text/css">
	.st0{fill:#FFFFFF;}
</style>
<g>
	<g>
		<path class="st0" d="M245.333,0C110.059,0,0,110.059,0,245.333s110.059,245.333,245.333,245.333s245.333-110.059,245.333-245.333
			S380.608,0,245.333,0z M245.333,469.333c-123.52,0-224-100.48-224-224s100.48-224,224-224s224,100.48,224,224
			S368.853,469.333,245.333,469.333z"/>
	</g>
</g>
<g>
	<g>
		<path class="st0" d="M245.333,234.667C215.936,234.667,192,215.531,192,192s23.936-42.667,53.333-42.667
			s53.333,19.136,53.333,42.667c0,5.888,4.779,10.667,10.667,10.667S320,197.888,320,192c0-35.285-33.493-64-74.667-64
			s-74.667,28.715-74.667,64s33.493,64,74.667,64c29.397,0,53.333,19.136,53.333,42.667s-23.936,42.667-53.333,42.667
			S192,322.197,192,298.667c0-5.888-4.779-10.667-10.667-10.667s-10.667,4.779-10.667,10.667c0,35.285,33.493,64,74.667,64
			s74.667-28.715,74.667-64S286.507,234.667,245.333,234.667z"/>
	</g>
</g>
<g>
	<g>
		<path class="st0" d="M245.333,106.667c-5.888,0-10.667,4.779-10.667,10.667v256c0,5.888,4.779,10.667,10.667,10.667
			S256,379.221,256,373.333v-256C256,111.445,251.221,106.667,245.333,106.667z"/>
	</g>
</g>
</svg>
