<?xml version="1.0" encoding="utf-8"?>
<!-- Generator: Adobe Illustrator 21.0.2, SVG Export Plug-In . SVG Version: 6.00 Build 0)  -->
<svg version="1.1" id="Capa_1" xmlns="http://www.w3.org/2000/svg" xmlns:xlink="http://www.w3.org/1999/xlink" x="0px" y="0px"
	 width="512px" height="512px" viewBox="0 0 512 512" style="enable-background:new 0 0 512 512;" xml:space="preserve">
<style type="text/css">
	.st0{fill:url(#SVGID_1_);}
	.st1{fill:url(#SVGID_2_);}
	.st2{fill:url(#SVGID_3_);}
	.st3{fill:url(#SVGID_4_);}
	.st4{fill:url(#SVGID_5_);}
	.st5{fill:url(#SVGID_6_);}
	.st6{fill:url(#SVGID_7_);}
	.st7{fill:url(#SVGID_8_);}
	.st8{fill:url(#SVGID_9_);}
</style>
<g>
	<g>
		<linearGradient id="SVGID_1_" gradientUnits="userSpaceOnUse" x1="0" y1="395.6316" x2="232.7266" y2="395.6316">
			<stop  offset="0" style="stop-color:#44E2FF"/>
			<stop  offset="1" style="stop-color:#44E2FF"/>
		</linearGradient>
		<path class="st0" d="M0,511.996h232.727V279.267H0V511.996z M46.542,325.816H186.18v139.276H46.542V325.816z"/>
		<linearGradient id="SVGID_2_" gradientUnits="userSpaceOnUse" x1="93.0899" y1="395.6335" x2="139.6342" y2="395.6335">
			<stop  offset="0" style="stop-color:#44E2FF"/>
			<stop  offset="1" style="stop-color:#44E2FF"/>
		</linearGradient>
		<rect x="93.09" y="372.358" class="st1" width="46.544" height="46.551"/>
		<linearGradient id="SVGID_3_" gradientUnits="userSpaceOnUse" x1="372.3544" y1="488.7272" x2="418.9102" y2="488.7272">
			<stop  offset="0" style="stop-color:#44E2FF"/>
			<stop  offset="1" style="stop-color:#44E2FF"/>
		</linearGradient>
		<rect x="372.354" y="465.454" class="st2" width="46.556" height="46.546"/>
		<linearGradient id="SVGID_4_" gradientUnits="userSpaceOnUse" x1="465.4455" y1="488.7272" x2="512" y2="488.7272">
			<stop  offset="0" style="stop-color:#44E2FF"/>
			<stop  offset="1" style="stop-color:#44E2FF"/>
		</linearGradient>
		<rect x="465.445" y="465.454" class="st3" width="46.554" height="46.546"/>
		<linearGradient id="SVGID_5_" gradientUnits="userSpaceOnUse" x1="279.2671" y1="395.6316" x2="511.9962" y2="395.6316">
			<stop  offset="0" style="stop-color:#44E2FF"/>
			<stop  offset="1" style="stop-color:#44E2FF"/>
		</linearGradient>
		<polygon class="st4" points="465.451,325.816 418.909,325.816 418.909,279.267 279.267,279.267 279.267,511.996 325.816,511.996 
			325.816,372.358 372.354,372.358 372.354,418.909 511.996,418.909 511.996,279.267 511.996,279.267 465.451,279.267 		"/>
		<linearGradient id="SVGID_6_" gradientUnits="userSpaceOnUse" x1="0" y1="116.3658" x2="232.7266" y2="116.3658">
			<stop  offset="0" style="stop-color:#44E2FF"/>
			<stop  offset="1" style="stop-color:#44E2FF"/>
		</linearGradient>
		<path class="st5" d="M0,232.732h232.727V0H0V232.732z M46.542,46.542H186.18V186.18H46.542V46.542z"/>
		<linearGradient id="SVGID_7_" gradientUnits="userSpaceOnUse" x1="93.0899" y1="116.3639" x2="139.6342" y2="116.3639">
			<stop  offset="0" style="stop-color:#44E2FF"/>
			<stop  offset="1" style="stop-color:#44E2FF"/>
		</linearGradient>
		<rect x="93.09" y="93.09" class="st6" width="46.544" height="46.548"/>
		<linearGradient id="SVGID_8_" gradientUnits="userSpaceOnUse" x1="279.2671" y1="116.3658" x2="512.0001" y2="116.3658">
			<stop  offset="0" style="stop-color:#44E2FF"/>
			<stop  offset="1" style="stop-color:#44E2FF"/>
		</linearGradient>
		<path class="st7" d="M279.267,0v232.732H512V0H279.267z M465.451,186.18H325.816V46.542h139.634V186.18z"/>
		<linearGradient id="SVGID_9_" gradientUnits="userSpaceOnUse" x1="372.3544" y1="116.3639" x2="418.9102" y2="116.3639">
			<stop  offset="0" style="stop-color:#44E2FF"/>
			<stop  offset="1" style="stop-color:#44E2FF"/>
		</linearGradient>
		<rect x="372.354" y="93.09" class="st8" width="46.556" height="46.548"/>
	</g>
</g>
</svg>
