<?xml version="1.0" encoding="utf-8"?>
<!-- Generator: Adobe Illustrator 21.0.2, SVG Export Plug-In . SVG Version: 6.00 Build 0)  -->
<svg version="1.1" xmlns="http://www.w3.org/2000/svg" xmlns:xlink="http://www.w3.org/1999/xlink" x="0px" y="0px"
	 width="694.465px" height="694.465px" viewBox="0 0 694.465 694.465" style="enable-background:new 0 0 694.465 694.465;"
	 xml:space="preserve">
<style type="text/css">
	.st0{fill:#11E5FF;}
	.st1{fill:#FFFFFF;}
</style>
<g id="Слой_2">
	<path class="st0" d="M552.722,694.465H141.743C63.784,694.465,0,630.681,0,552.722V141.743C0,63.784,63.784,0,141.743,0h410.979
		c77.959,0,141.743,63.784,141.743,141.743v410.979C694.465,630.681,630.681,694.465,552.722,694.465z"/>
</g>
<g id="Layer_1">
	<g id="XMLID_496_">
		<path id="XMLID_497_" class="st1" d="M64.938,346.253l117.975,44.032l45.664,146.854c2.922,9.405,14.423,12.882,22.057,6.641
			l65.761-53.61c6.893-5.617,16.712-5.897,23.915-0.667l118.61,86.113c8.166,5.936,19.736,1.461,21.784-8.407l86.888-417.947
			c2.236-10.779-8.356-19.772-18.62-15.802L64.799,320.238C52.851,324.846,52.955,341.762,64.938,346.253z M221.217,366.845
			l230.567-142.007c4.144-2.545,8.407,3.058,4.849,6.359L266.348,408.077c-6.688,6.226-11.003,14.558-12.225,23.602l-6.482,48.036
			c-0.858,6.414-9.868,7.05-11.638,0.843l-24.929-87.595C208.219,382.972,212.38,372.3,221.217,366.845z"/>
	</g>
</g>
</svg>
