<?xml version="1.0" encoding="utf-8"?>
<!-- Generator: Adobe Illustrator 21.0.2, SVG Export Plug-In . SVG Version: 6.00 Build 0)  -->
<svg version="1.1" id="Capa_1" xmlns="http://www.w3.org/2000/svg" xmlns:xlink="http://www.w3.org/1999/xlink" x="0px" y="0px"
	 width="511.991px" height="298.667px" viewBox="0 0 511.991 298.667" style="enable-background:new 0 0 511.991 298.667;"
	 xml:space="preserve">
<style type="text/css">
	.st0{fill:#FFFFFF;stroke:#FFFFFF;stroke-miterlimit:10;}
</style>
<g>
	<g>
		<path class="st0" d="M510.096,143.275C506.064,137.408,409.168,0,255.995,0C124.56,0,7.44,136.619,2.512,142.443
			c-3.349,3.968-3.349,9.792,0,13.781c4.928,5.824,122.048,142.443,253.483,142.443s248.554-136.619,253.482-142.443
			C512.571,152.555,512.848,147.243,510.096,143.275z M255.995,277.334c-105.365,0-205.547-100.48-230.997-128
			c25.408-27.541,125.483-128,230.997-128c123.285,0,210.304,100.331,231.552,127.424
			C463.013,175.403,362.256,277.334,255.995,277.334z"/>
	</g>
</g>
<g>
	<g>
		<path class="st0" d="M255.995,64c-47.061,0-85.333,38.272-85.333,85.333s38.272,85.333,85.333,85.333s85.333-38.272,85.333-85.333
			S303.056,64,255.995,64z M255.995,213.334c-35.285,0-64-28.715-64-64s28.715-64,64-64s64,28.715,64,64
			S291.28,213.334,255.995,213.334z"/>
	</g>
</g>
</svg>
